<svg xmlns="http://www.w3.org/2000/svg" viewBox="0 0 512 512" fill="none">
  <defs>
    <linearGradient id="bgGradient" x1="0%" y1="0%" x2="100%" y2="100%">
      <stop offset="0%" style="stop-color:#10b981;stop-opacity:1" />
      <stop offset="100%" style="stop-color:#0d9488;stop-opacity:1" />
    </linearGradient>
  </defs>
  
  <rect width="512" height="512" rx="112" ry="112" fill="url(#bgGradient)"/>
  
  <g transform="translate(256, 256)">
    <path 
      d="M0,60 
         C-60,20 -100,-20 -100,-60 
         C-100,-100 -60,-130 0,-100 
         C60,-130 100,-100 100,-60 
         C100,-20 60,20 0,60Z" 
      fill="white" 
      transform="translate(0, -20) scale(1.8)"
    />
    
    <path 
      d="M-70,-20 
         L-50,-20 
         L-40,-50 
         L-20,20 
         L0,-30 
         L20,20 
         L40,-50 
         L50,-20 
         L70,-20" 
      stroke="#10b981" 
      stroke-width="12" 
      stroke-linecap="round" 
      stroke-linejoin="round"
      fill="none"
      transform="translate(0, 10) scale(1.3)"
    />
  </g>
</svg>
